<svg width="8" height="16" viewBox="0 0 8 16" fill="none" xmlns="http://www.w3.org/2000/svg">
<g clip-path="url(#clip0_218_1384)">
<path fill-rule="evenodd" clip-rule="evenodd" d="M7.73424 0.233926C7.43969 -0.0780736 6.96333 -0.0780736 6.66951 0.233926L0.44187 6.84512C0.302467 6.99085 0.191465 7.16625 0.115615 7.36065C0.0397647 7.55504 0.000650172 7.76438 0.000650154 7.97592C0.000650135 8.18747 0.0397646 8.39681 0.115615 8.5912C0.191465 8.7856 0.302467 8.961 0.44187 9.10673L6.7146 15.7667C6.85696 15.9156 7.04548 15.9992 7.24189 16.0007C7.43829 16.0022 7.62784 15.9214 7.77205 15.7747C7.84349 15.7023 7.90065 15.6145 7.93999 15.5168C7.97934 15.4191 8.00002 15.3135 8.00077 15.2066C8.00152 15.0998 7.98232 14.9939 7.94435 14.8955C7.90639 14.7971 7.85047 14.7084 7.78005 14.6347L2.03896 8.54112C1.9692 8.46825 1.91365 8.38053 1.87569 8.2833C1.83773 8.18606 1.81816 8.08135 1.81816 7.97553C1.81816 7.8697 1.83773 7.76499 1.87569 7.66775C1.91365 7.57052 1.9692 7.4828 2.03896 7.40992L7.73424 1.36433C7.80397 1.29153 7.85951 1.20387 7.89746 1.1067C7.93541 1.00953 7.95498 0.904883 7.95498 0.799127C7.95498 0.69337 7.93541 0.588718 7.89746 0.491549C7.85951 0.39438 7.80397 0.306725 7.73424 0.233926Z" fill="white"/>
</g>
<defs>
<clipPath id="clip0_218_1384">
<rect width="8" height="16" fill="white" transform="translate(8 16) rotate(-180)"/>
</clipPath>
</defs>
</svg>
