<svg width="32" height="32" viewBox="0 0 32 32" fill="none" xmlns="http://www.w3.org/2000/svg">
<path d="M24.9332 3.05334L23.9866 4.00001L23.0399 4.94668L25.0532 6.94668L27.0532 8.94668L27.9999 8.00001L28.9466 7.05334L26.9332 5.05334L24.9332 3.05334ZM4.94656 8.94668L6.93322 6.94668L8.93322 4.94668L7.98656 4.00001L7.03989 3.05334L5.05322 5.05334L3.05322 7.05334L3.99989 8.00001L4.94656 8.94668ZM27.9999 17.3333C27.9999 10.8267 22.5066 5.33334 15.9999 5.33334C9.49322 5.33334 3.99989 10.8267 3.99989 17.3333C3.99989 23.84 9.49322 29.3333 15.9999 29.3333C22.5066 29.3333 27.9999 23.84 27.9999 17.3333ZM22.6666 18.6667H14.6666V10.6667H17.3332V16H22.6666V18.6667Z" fill="white"/>
</svg>
