<svg width="20" height="20" viewBox="0 0 20 20" fill="none" xmlns="http://www.w3.org/2000/svg">
<path d="M16.1001 11.15C15.2307 11.4132 14.3119 11.4692 13.4169 11.3138C12.522 11.1583 11.6759 10.7955 10.9462 10.2546C10.2166 9.71361 9.62363 9.00941 9.2148 8.19829C8.80597 7.38717 8.59261 6.49165 8.59178 5.58332C8.59178 5.00832 8.67512 4.44166 8.84178 3.89999C8.88575 3.75525 8.88958 3.60129 8.85286 3.45455C8.81613 3.3078 8.74024 3.17379 8.63327 3.06683C8.52631 2.95987 8.3923 2.88397 8.24556 2.84725C8.09882 2.81052 7.94485 2.81435 7.80012 2.85832C6.26056 3.31759 4.91124 4.2633 3.95426 5.55378C2.99729 6.84427 2.48418 8.41008 2.49178 10.0167C2.49178 14.1417 5.85012 17.5 9.97512 17.5C13.2918 17.5 16.1751 15.3667 17.1334 12.1917C17.2251 11.9 17.1418 11.575 16.9251 11.3583C16.7084 11.1417 16.3918 11.0583 16.0918 11.15H16.1001Z" fill="white"/>
</svg>
